<!-- <?xml version="1.0" standalone="no"?>
<!DOCTYPE svg PUBLIC "-//W3C//DTD SVG 20010904//EN"
 "http://www.w3.org/TR/2001/REC-SVG-20010904/DTD/svg10.dtd"> -->
<svg version="1.0" xmlns="http://www.w3.org/2000/svg"
 width="225.000000pt" height="225.000000pt" viewBox="0 0 225.000000 225.000000"
 preserveAspectRatio="xMidYMid meet">
<metadata>
Created by potrace 1.15, written by Peter Selinger 2001-2017
</metadata>
<g transform="translate(0.000000,225.000000) scale(0.100000,-0.100000)"
fill="#000000" stroke="none">
<path d="M957 2204 c-27 -25 -43 -33 -55 -28 -9 4 -42 10 -73 12 -54 4 -58 2
-107 -40 -27 -24 -71 -55 -96 -70 -34 -20 -52 -39 -65 -71 -12 -27 -33 -52
-58 -69 -23 -15 -45 -40 -52 -60 -23 -61 -26 -63 -87 -69 -42 -4 -64 -2 -75 8
-24 20 -42 17 -29 -6 5 -11 10 -24 10 -30 0 -17 -71 -91 -81 -85 -5 3 -9 0 -9
-7 0 -6 -15 -28 -33 -49 -21 -23 -36 -52 -40 -76 -5 -28 -15 -46 -36 -62 -36
-26 -45 -64 -31 -125 9 -40 7 -51 -10 -79 -36 -60 -17 -168 32 -184 15 -4 18
-17 18 -77 0 -40 4 -79 10 -87 5 -9 5 -19 -2 -27 -7 -9 -2 -19 18 -36 l27 -24
-22 -29 c-21 -29 -21 -34 -10 -105 7 -40 18 -83 26 -94 7 -11 13 -39 13 -63 0
-32 6 -49 25 -67 13 -14 31 -25 39 -25 20 0 46 -39 46 -68 0 -33 49 -78 101
-92 24 -7 61 -27 81 -46 45 -41 73 -48 143 -40 40 4 56 2 65 -9 6 -8 33 -17
58 -21 68 -9 105 -27 156 -74 30 -28 57 -43 83 -47 21 -3 46 -14 55 -24 10
-10 39 -20 65 -23 27 -4 67 -11 91 -16 63 -15 86 -12 124 14 29 19 44 23 86
18 73 -7 98 3 127 48 20 32 31 40 55 40 73 0 117 39 150 129 13 37 22 46 47
53 19 5 44 23 58 43 15 18 32 32 39 29 8 -3 25 14 41 43 34 58 40 63 87 63 31
0 40 5 53 29 8 17 31 42 51 58 21 15 43 43 51 61 7 18 20 35 29 39 24 9 44 58
44 109 0 38 5 54 27 76 22 23 27 37 25 71 -1 23 -3 83 -5 132 -2 97 -9 116
-56 158 -28 24 -31 33 -31 82 0 41 -6 63 -21 84 -22 30 -24 50 -13 114 5 29 2
43 -11 57 -14 15 -16 29 -11 63 5 34 3 48 -12 68 -11 13 -22 38 -26 54 -11 52
-42 93 -73 97 -22 2 -29 9 -34 38 -11 54 -58 90 -118 90 -45 0 -53 4 -90 43
l-40 42 -93 2 c-51 1 -125 5 -164 9 -67 6 -74 9 -117 50 -26 24 -53 44 -62 44
-8 0 -21 11 -27 25 -8 18 -15 22 -23 15 -16 -13 -117 -3 -168 16 -49 18 -46
19 -90 -22z m209 -158 c3 -8 -8 -41 -25 -73 -17 -32 -31 -63 -31 -70 0 -7 -20
-21 -44 -32 -53 -23 -81 -68 -73 -117 4 -22 1 -37 -9 -45 -28 -23 -55 -87 -48
-115 4 -14 1 -44 -7 -66 -10 -31 -10 -46 -1 -71 9 -23 9 -39 0 -63 -10 -29 -8
-35 31 -87 22 -31 41 -63 41 -72 0 -23 -28 -30 -48 -12 -9 8 -34 20 -54 26
-20 7 -42 19 -49 27 -7 8 -27 21 -45 29 -18 7 -38 24 -44 37 -7 12 -25 37 -40
53 -16 17 -33 49 -39 71 -6 23 -18 47 -26 54 -24 20 -18 64 11 89 25 21 26 28
21 80 -4 39 -2 64 8 81 8 14 14 36 15 49 0 13 17 43 38 66 20 24 44 54 53 67
10 14 38 30 73 41 33 11 56 24 56 32 0 26 34 34 133 35 75 0 99 -3 103 -14z
m399 -187 c30 -18 45 -21 90 -15 53 6 55 5 69 -23 17 -32 34 -41 75 -41 21 0
31 -8 44 -35 9 -19 30 -41 47 -50 22 -11 30 -23 30 -43 1 -15 7 -38 15 -52 33
-58 13 -73 -64 -45 -32 11 -47 12 -67 3 -21 -10 -29 -8 -57 13 -25 19 -44 24
-88 24 -32 -1 -64 -6 -73 -14 -10 -9 -27 -11 -47 -7 -40 8 -113 -11 -135 -35
-11 -12 -30 -19 -54 -19 -40 0 -58 -11 -83 -52 -10 -16 -26 -28 -37 -28 -12 0
-36 -24 -66 -66 -42 -58 -48 -64 -62 -50 -12 11 -15 39 -15 119 1 93 4 108 22
126 13 13 21 34 21 55 0 30 5 37 38 53 28 14 40 28 50 58 15 45 26 55 63 55
14 0 51 14 82 30 31 17 72 30 91 30 18 0 39 7 46 15 16 20 22 19 65 -6z
m-1151 -235 c1 -39 7 -57 28 -83 24 -28 27 -38 21 -77 -7 -55 7 -86 54 -111
26 -14 36 -28 45 -60 13 -52 25 -63 77 -70 30 -4 47 -14 65 -38 30 -39 109
-64 215 -67 49 -2 75 -7 78 -15 7 -19 -46 -93 -67 -93 -9 0 -25 -9 -35 -20
-11 -12 -31 -20 -50 -20 -18 0 -44 -9 -58 -20 -15 -12 -40 -20 -64 -20 -21 0
-45 -4 -52 -9 -10 -6 -27 -5 -49 5 -19 8 -53 14 -75 14 -31 0 -48 7 -69 27
-16 15 -48 37 -71 48 -31 15 -44 28 -51 53 -8 31 -18 41 -84 90 -22 16 -22 20
-12 70 7 28 16 52 21 52 21 0 7 19 -21 28 l-29 11 5 68 c4 46 14 79 29 103 12
19 26 48 29 64 9 36 86 127 105 124 10 -2 15 -18 15 -54z m1234 -240 c33 -5
41 -10 37 -23 -2 -9 0 -23 5 -31 8 -13 11 -13 25 1 28 28 96 -3 159 -73 30
-33 67 -63 82 -67 27 -7 29 -12 35 -69 3 -36 13 -70 22 -80 19 -21 22 -48 7
-57 -13 -8 -13 -76 0 -111 9 -23 7 -33 -15 -65 -14 -21 -25 -43 -25 -48 0 -5
-7 -11 -15 -15 -9 -3 -24 -25 -34 -48 -21 -50 -43 -71 -68 -66 -15 3 -18 14
-18 66 0 60 -2 65 -33 90 -30 25 -32 31 -27 67 8 48 -19 89 -72 111 -24 10
-33 21 -33 38 0 37 -20 86 -40 96 -10 6 -32 10 -48 10 -22 0 -31 7 -43 32 -9
22 -24 36 -44 42 -16 4 -50 17 -75 28 -27 11 -72 19 -114 21 -76 2 -91 14 -60
48 35 39 183 99 243 99 16 0 33 5 37 11 3 6 20 9 38 6 17 -3 50 -9 74 -13z
m-358 -282 c22 14 70 -16 70 -44 0 -15 5 -18 19 -13 11 3 28 1 38 -5 10 -5 30
-14 44 -19 17 -6 29 -20 33 -38 4 -15 21 -39 37 -53 23 -19 32 -37 36 -70 3
-25 15 -55 26 -68 18 -20 19 -26 9 -55 -15 -42 -15 -92 0 -116 9 -15 8 -24 -8
-46 -39 -55 -54 -91 -54 -132 0 -38 -3 -43 -27 -49 -37 -9 -63 -32 -79 -71
-10 -22 -23 -35 -42 -38 -15 -4 -37 -8 -49 -11 -12 -2 -35 -16 -52 -30 -24
-20 -37 -24 -60 -19 -17 3 -43 0 -62 -8 -38 -15 -140 -9 -199 13 -19 7 -41 14
-47 16 -7 2 -13 10 -13 17 0 11 12 13 51 9 48 -4 53 -3 89 33 27 26 41 50 45
77 6 32 13 42 46 58 42 22 62 47 80 100 7 19 23 48 35 63 29 34 45 90 37 129
-4 22 -1 33 15 44 17 11 19 21 15 56 -3 24 -9 47 -14 53 -5 5 -9 28 -9 52 0
31 -6 49 -21 64 -20 20 -38 72 -39 109 0 12 3 11 16 -2 13 -12 21 -14 34 -6z
m-149 -128 c3 -27 9 -57 13 -66 5 -10 1 -27 -10 -42 -11 -19 -15 -37 -11 -63
5 -26 1 -43 -12 -62 -10 -14 -21 -38 -25 -53 -4 -17 -21 -37 -44 -52 -28 -17
-40 -34 -47 -62 -9 -36 -13 -39 -50 -45 -22 -3 -61 -20 -88 -39 -42 -31 -57
-35 -123 -38 -70 -4 -74 -3 -83 19 -5 13 -6 28 -3 33 2 5 -1 7 -9 4 -8 -2 -15
-19 -17 -37 -2 -20 -8 -30 -15 -27 -7 3 -31 10 -55 17 -24 6 -49 20 -55 30 -7
11 -19 19 -28 19 -9 0 -24 9 -34 20 -10 11 -28 20 -41 20 -16 0 -32 13 -52 43
-16 23 -39 50 -50 60 -15 14 -19 29 -17 65 l2 47 48 -3 c26 -1 63 2 81 7 28 8
35 6 59 -19 38 -39 116 -51 154 -23 21 16 38 19 86 15 54 -4 63 -1 88 22 17
16 40 26 58 26 36 0 89 28 89 47 0 7 18 24 40 38 27 17 42 35 48 57 6 23 15
34 31 36 15 2 26 14 33 33 15 43 32 31 39 -27z"/>
</g>
</svg>
